<?xml version="1.0" encoding="iso-8859-1"?>
<!-- Generator: Adobe Illustrator 16.0.0, SVG Export Plug-In . SVG Version: 6.00 Build 0)  -->
<!DOCTYPE svg PUBLIC "-//W3C//DTD SVG 1.1//EN" "http://www.w3.org/Graphics/SVG/1.1/DTD/svg11.dtd">
<svg version="1.1" id="Capa_1" xmlns="http://www.w3.org/2000/svg" xmlns:xlink="http://www.w3.org/1999/xlink" x="0px" y="0px"
	 width="33.135px" height="33.135px" viewBox="0 0 33.135 33.135" style="enable-background:new 0 0 33.135 33.135;"
	 xml:space="preserve">
<g>
	<path d="M33.135,19.752c-2.295-1.77-4.693-3.165-7.617-4.132v-3.504h0.821l-3.11-2.461l-3.109,2.461h0.82v2.429
		c-0.5-0.077-1.014-0.145-1.543-0.203v-4.319h1.176l-4.458-3.528l-4.458,3.528h1.176v4.106c-0.489,0.032-0.962,0.08-1.425,0.142
		v-2.024h0.701l-2.656-2.102l-2.657,2.102h0.701v2.932C2.628,16.829,0,19.752,0,19.752s8.605,6.4,17.745,6.854
		c7.332,0.361,11.589-2.189,14.092-5.091c-3.467-2.272-13.554-3.7-17.031-3.994C19.947,16.442,27.492,17.52,33.135,19.752z
		 M22.578,12.936h1.128v2.163c-0.367-0.092-0.743-0.179-1.128-0.259V12.936z M16.799,11.198v2.943
		c-0.524-0.025-1.064-0.042-1.617-0.052v-2.891H16.799z M8.895,12.947h0.963v1.585c-0.33,0.069-0.649,0.147-0.963,0.229V12.947z"/>
</g>
<g>
</g>
<g>
</g>
<g>
</g>
<g>
</g>
<g>
</g>
<g>
</g>
<g>
</g>
<g>
</g>
<g>
</g>
<g>
</g>
<g>
</g>
<g>
</g>
<g>
</g>
<g>
</g>
<g>
</g>
</svg>
